# File created by Blade
# Date/Time:  Tue Sep 28 14:35:47 2010
#---------------------------------------------------------
:version 1.10
:name HOM
:units
  mass 1.0
  length 1.000000
  angle deg
:documentation
     Acclaim Skeleton File
:root
   axis xyz
   order TX TY TZ RX RY RZ
   position 0.000000 0.000000 0.000000
   orientation 0 0 0
:bonedata
   begin
      id 1
      name LeftUpLeg_dum
      direction 1.000000 0.000000 0.000000
      length 3.677894
      axis 0.0 0.0 0.0 xyz
   end
   begin
      id 2
      name RightUpLeg_dum
      direction -1.000000 0.000000 0.000000
      length 3.677894
      axis 0.0 0.0 0.0 xyz
   end
   begin
      id 3
      name Spine_dum
      direction 0.000000 1.000000 0.000000
      length 0.039370
      axis 0.0 0.0 0.0 xyz
   end
   begin
      id 4
      name LeftUpLeg
      direction 0.000000 -1.000000 0.000000
      length 18.389491
      axis 0.0 0.0 0.0 xyz
      dof rx ry rz
   end
   begin
      id 5
      name LeftLeg
      direction 0.000000 -1.000000 0.000000
      length 16.918313
      axis 0.0 0.0 0.0 xyz
      dof rx ry rz
   end
   begin
      id 6
      name LeftFoot
      direction 0.000000 -0.258819 0.965926
      length 6.436326
      axis 15.0 0.0 0.0 xyz
      dof rx ry rz
   end
   begin
      id 7
      name LeftToeBase
      direction 0.000000 0.000000 1.000000
      length 2.952750
      axis 0.0 0.0 0.0 xyz
      dof rx ry rz
   end
   begin
      id 8
      name RightUpLeg
      direction 0.000000 -1.000000 0.000000
      length 18.389491
      axis 0.0 0.0 0.0 xyz
      dof rx ry rz
   end
   begin
      id 9
      name RightLeg
      direction 0.000000 -1.000000 0.000000
      length 16.918313
      axis 0.0 0.0 0.0 xyz
      dof rx ry rz
   end
   begin
      id 10
      name RightFoot
      direction 0.000000 -0.258819 0.965926
      length 6.436326
      axis 15.0 0.0 0.0 xyz
      dof rx ry rz
   end
   begin
      id 11
      name RightToeBase
      direction 0.000000 0.000000 1.000000
      length 2.952750
      axis 0.0 0.0 0.0 xyz
      dof rx ry rz
   end
   begin
      id 12
      name Spine
      direction 0.000000 1.000000 0.000000
      length 9.194745
      axis 0.0 0.0 0.0 xyz
      dof rx ry rz
   end
   begin
      id 13
      name Spine1
      direction 0.000000 1.000000 0.000000
      length 0.000000
      axis 0.0 0.0 0.0 xyz
      dof rx ry rz
   end
   begin
      id 14
      name Spine1_dum1
      direction 0.000000 1.000000 0.000000
      length 9.194745
      axis 0.0 0.0 0.0 xyz
   end
   begin
      id 15
      name Spine1_dum2
      direction 0.000000 1.000000 0.000000
      length 9.194745
      axis 0.0 0.0 0.0 xyz
   end
   begin
      id 16
      name Spine1_dum3
      direction 0.000000 1.000000 0.000000
      length 9.194745
      axis 0.0 0.0 0.0 xyz
   end
   begin
      id 17
      name Neck
      direction 0.000000 1.000000 0.000000
      length 4.229598
      axis 0.0 0.0 0.0 xyz
      dof rx ry rz
   end
   begin
      id 18
      name Head
      direction 0.000000 1.000000 0.000000
      length 4.527550
      axis 0.0 0.0 0.0 xyz
      dof rx ry rz
   end
   begin
      id 19
      name LeftShoulder
      direction 1.000000 -0.000004 0.000000
      length 5.516839
      axis 0.0 0.0 -90.0 xyz
      dof rx ry rz
   end
   begin
      id 20
      name LeftArm
      direction 1.000000 -0.000004 0.000000
      length 11.033679
      axis 0.0 0.0 -90.0 xyz
      dof rx ry rz
   end
   begin
      id 21
      name LeftForeArm
      direction 1.000000 -0.000004 0.000000
      length 10.114232
      axis 0.0 0.0 -90.0 xyz
      dof rx ry rz
   end
   begin
      id 22
      name LeftHand
      direction 0.000000 0.000000 0.000000
      length 0.000000
      axis 0.0 0.0 -90.0 xyz
      dof rx ry rz
   end
   begin
      id 23
      name LeftHand_dum1
      direction 0.000000 0.000000 0.000000
      length 0.000000
      axis 0.0 0.0 -90.0 xyz
   end
   begin
      id 24
      name LeftHand_dum2
      direction 1.000000 -0.000004 0.000000
      length 3.937000
      axis 0.0 0.0 -90.0 xyz
   end
   begin
      id 25
      name LeftHandThumb
      direction 0.000000 0.000000 1.000000
      length 3.937000
      axis 0.0 0.0 -90.0 xyz
      dof rx ry rz
   end
   begin
      id 26
      name RightShoulder
      direction -1.000000 -0.000004 0.000000
      length 5.516839
      axis 0.0 0.0 90.0 xyz
      dof rx ry rz
   end
   begin
      id 27
      name RightArm
      direction -1.000000 -0.000004 0.000000
      length 11.033679
      axis 0.0 0.0 90.0 xyz
      dof rx ry rz
   end
   begin
      id 28
      name RightForeArm
      direction -1.000000 -0.000004 0.000000
      length 10.114232
      axis 0.0 0.0 90.0 xyz
      dof rx ry rz
   end
   begin
      id 29
      name RightHand
      direction 0.000000 0.000000 0.000000
      length 0.000000
      axis 0.0 0.0 90.0 xyz
      dof rx ry rz
   end
   begin
      id 30
      name RightHand_dum1
      direction 0.000000 0.000000 0.000000
      length 0.000000
      axis 0.0 0.0 90.0 xyz
   end
   begin
      id 31
      name RightHand_dum2
      direction -1.000000 -0.000004 0.000000
      length 5.393690
      axis 0.0 0.0 90.0 xyz
   end
   begin
      id 32
      name RightHandThumb
      direction 0.000000 0.000000 1.000000
      length 3.937000
      axis 0.0 0.0 90.0 xyz
      dof rx ry rz
   end
:hierarchy
   begin
      root LeftUpLeg_dum RightUpLeg_dum Spine_dum
      LeftUpLeg_dum LeftUpLeg
      RightUpLeg_dum RightUpLeg
      Spine_dum Spine
      LeftUpLeg LeftLeg
      LeftLeg LeftFoot
      LeftFoot LeftToeBase
      RightUpLeg RightLeg
      RightLeg RightFoot
      RightFoot RightToeBase
      Spine Spine1
      Spine1 Spine1_dum1 Spine1_dum2 Spine1_dum3
      Spine1_dum1 Neck
      Spine1_dum2 LeftShoulder
      Spine1_dum3 RightShoulder
      Neck Head
      LeftShoulder LeftArm
      LeftArm LeftForeArm
      LeftForeArm LeftHand
      LeftHand LeftHand_dum1 LeftHand_dum2
      LeftHand_dum1 LeftHandThumb
      RightShoulder RightArm
      RightArm RightForeArm
      RightForeArm RightHand
      RightHand RightHand_dum1 RightHand_dum2
      RightHand_dum1 RightHandThumb
   end

# File created by Blade
# Date/Time:  Tue Sep 28 14:35:42 2010
# Frame Rate: 200.000 fps
#------------------------------------------------------
:FULLY-SPECIFIED
:DEGREES
642
root  2.005064 36.144277 8.599052 7.330107 7.868106 -6.086189
LeftUpLeg  -0.469094 9.936393 6.109339
LeftLeg  26.218701 -0.000000 0.000000
LeftFoot  -10.516059 11.768275 10.365195
LeftToeBase  -18.653533 0.000000 -0.000000
RightUpLeg  -33.427714 -22.321990 16.072569
RightLeg  7.212708 -0.000000 0.000000
RightFoot  -2.529086 1.392692 -3.916635
RightToeBase  -11.528256 0.000000 -0.000000
Spine  -13.332080 -5.374144 2.705441
Spine1  15.973371 -4.974388 7.355636
Neck  7.200261 1.557787 -5.981765
Head  -11.622147 1.423779 1.312549
LeftShoulder  -3.547298 -10.137914 -31.147224
LeftArm  3.161810 44.728503 -33.565173
LeftForeArm  28.439348 -0.000000 0.000000
LeftHand  3.945715 -5.343731 -1.910057
LeftHandThumb  0.000000 -0.000000 0.000000
RightShoulder  1.744664 10.597998 22.050179
RightArm  -1.322129 -38.238108 38.955923
RightForeArm  39.194009 -0.000000 0.000000
RightHand  11.012839 12.789654 -5.895653
RightHandThumb  0.000000 -0.000000 0.000000
643
root  1.983638 36.100570 8.849140 7.294242 7.957692 -6.088969
LeftUpLeg  -0.366486 9.966822 6.284322
LeftLeg  26.775475 -0.000000 0.000000
LeftFoot  -10.369248 11.769768 10.456619
LeftToeBase  -19.134472 0.000000 -0.000000
RightUpLeg  -33.444446 -22.262518 16.090616
RightLeg  7.447871 -0.000000 0.000000
RightFoot  -2.469902 1.503691 -3.989027
RightToeBase  -11.996401 0.000000 -0.000000
Spine  -13.356562 -5.388046 2.773281
Spine1  15.956063 -5.006497 7.439328
Neck  7.185927 1.593012 -6.155289
Head  -11.587597 1.367971 1.293770
LeftShoulder  -3.533984 -10.094156 -31.200024
LeftArm  3.327720 44.380667 -33.488831
LeftForeArm  28.583876 -0.000000 0.000000
LeftHand  4.081052 -5.478207 -2.094718
LeftHandThumb  0.000000 -0.000000 0.000000
RightShoulder  1.754562 10.587624 22.086585
RightArm  -1.422261 -38.649301 38.997907
RightForeArm  38.607371 -0.000000 0.000000
RightHand  10.969944 13.036682 -5.970638
RightHandThumb  0.000000 -0.000000 0.000000
644
root  1.962459 36.057225 9.101972 7.257242 8.057351 -6.093422
LeftUpLeg  -0.261190 9.907365 6.449579
LeftLeg  27.315635 -0.000000 0.000000
LeftFoot  -10.221530 11.800990 10.434731
LeftToeBase  -19.498758 0.000000 -0.000000
RightUpLeg  -33.476544 -22.262286 16.153265
RightLeg  7.758540 -0.000000 0.000000
RightFoot  -2.523008 1.446086 -4.648718
RightToeBase  -11.938367 0.000000 -0.000000
Spine  -13.390303 -5.395959 2.839405
Spine1  15.930366 -5.031464 7.524396
Neck  7.195161 1.595513 -6.334634
Head  -11.542681 1.283262 1.320251
LeftShoulder  -3.530633 -10.084450 -31.231380
LeftArm  3.432906 44.173630 -33.425581
LeftForeArm  28.851194 -0.000000 0.000000
LeftHand  4.129172 -5.709335 -2.018313
LeftHandThumb  0.000000 -0.000000 0.000000
RightShoulder  1.746840 10.476965 22.107118
RightArm  -1.484876 -38.978631 39.029289
RightForeArm  38.052948 -0.000000 0.000000
RightHand  10.835118 13.105058 -6.165742
RightHandThumb  0.000000 -0.000000 0.000000
645
root  1.939822 36.014513 9.357851 7.215075 8.151666 -6.101984
LeftUpLeg  -0.138106 9.823625 6.620588
LeftLeg  27.828536 -0.000000 0.000000
LeftFoot  -10.030754 11.848841 10.474256
LeftToeBase  -19.769420 0.000000 -0.000000
RightUpLeg  -33.548930 -22.353619 16.282175
RightLeg  8.167143 -0.000000 0.000000
RightFoot  -2.405615 1.539370 -5.052004
RightToeBase  -11.948147 0.000000 -0.000000
Spine  -13.431855 -5.413390 2.910638
Spine1  15.905876 -5.067541 7.606885
Neck  7.225993 1.616638 -6.507890
Head  -11.505615 1.253594 1.300299
LeftShoulder  -3.529096 -10.061409 -31.272065
LeftArm  3.537504 43.936881 -33.377432
LeftForeArm  29.052435 -0.000000 0.000000
LeftHand  4.273229 -6.068140 -2.103743
LeftHandThumb  0.000000 -0.000000 0.000000
RightShoulder  1.729695 10.365084 22.120052
RightArm  -1.537325 -39.307139 39.068319
RightForeArm  37.489616 -0.000000 0.000000
RightHand  10.673056 13.272847 -6.266807
RightHandThumb  0.000000 -0.000000 0.000000
646
root  1.919243 35.972084 9.614007 7.170460 8.242117 -6.109554
LeftUpLeg  -0.028704 9.730426 6.785045
LeftLeg  28.370480 -0.000000 0.000000
LeftFoot  -9.792207 11.912206 10.523669
LeftToeBase  -20.081630 0.000000 -0.000000
RightUpLeg  -33.637983 -22.499004 16.440957
RightLeg  8.641349 -0.000000 0.000000
RightFoot  -2.130080 1.745811 -5.773026
RightToeBase  -11.938612 0.000000 -0.000000
Spine  -13.463509 -5.423399 2.993341
Spine1  15.886565 -5.100919 7.692556
Neck  7.252514 1.627695 -6.711701
Head  -11.506035 1.180893 1.305981
LeftShoulder  -3.545056 -10.035255 -31.296446
LeftArm  3.631986 43.695273 -33.333300
LeftForeArm  29.366611 -0.000000 0.000000
LeftHand  4.284165 -6.351455 -2.017436
LeftHandThumb  0.000000 -0.000000 0.000000
RightShoulder  1.716144 10.268778 22.107879
RightArm  -1.609958 -39.662032 39.130795
RightForeArm  36.966877 -0.000000 0.000000
RightHand  10.473013 13.280779 -6.397787
RightHandThumb  0.000000 -0.000000 0.000000
647
root  1.895934 35.932079 9.879113 7.108123 8.335325 -6.139579
LeftUpLeg  0.137036 9.706126 6.998227
LeftLeg  28.843090 -0.000000 0.000000
LeftFoot  -9.591281 11.918077 10.671143
LeftToeBase  -19.940800 0.000000 -0.000000
RightUpLeg  -33.777640 -22.845406 16.740578
RightLeg  9.243251 -0.000000 0.000000
RightFoot  -1.897813 2.069825 -6.777140
RightToeBase  -11.002534 0.000000 -0.000000
Spine  -13.526766 -5.446675 3.088625
Spine1  15.895587 -5.153418 7.787037
Neck  7.317336 1.652742 -6.937626
Head  -11.535265 1.147069 1.337874
LeftShoulder  -3.543007 -10.092422 -31.335879
LeftArm  3.640241 43.601260 -33.334772
LeftForeArm  29.597346 -0.000000 0.000000
LeftHand  4.422448 -6.852180 -1.929393
LeftHandThumb  0.000000 -0.000000 0.000000
RightShoulder  1.693569 10.173011 22.079539
RightArm  -1.676215 -40.065380 39.212583
RightForeArm  36.426373 -0.000000 0.000000
RightHand  10.281681 13.565046 -6.519970
RightHandThumb  0.000000 -0.000000 0.000000
648
root  1.873330 35.890073 10.140469 7.051458 8.404170 -6.156023
LeftUpLeg  0.218788 9.435200 7.128426
LeftLeg  29.442742 -0.000000 0.000000
LeftFoot  -9.190913 12.090245 10.620852
LeftToeBase  -20.682594 0.000000 -0.000000
RightUpLeg  -33.912330 -23.166408 17.015962
RightLeg  9.832607 -0.000000 0.000000
RightFoot  -1.124441 2.348382 -7.930325
RightToeBase  -11.577914 0.000000 -0.000000
Spine  -13.564518 -5.442805 3.176252
Spine1  15.881094 -5.175611 7.875723
Neck  7.333429 1.652551 -7.134245
Head  -11.494461 1.072450 1.315279
LeftShoulder  -3.609381 -9.983078 -31.354971
LeftArm  3.768936 43.179200 -33.283956
LeftForeArm  30.003050 -0.000000 0.000000
LeftHand  4.388137 -6.812712 -1.987317
LeftHandThumb  0.000000 -0.000000 0.000000
RightShoulder  1.680008 10.032378 22.053439
RightArm  -1.752982 -40.387084 39.294640
RightForeArm  35.884300 -0.000000 0.000000
RightHand  10.122287 13.795306 -6.611610
RightHandThumb  0.000000 -0.000000 0.000000
649
root  1.850105 35.848022 10.405360 6.994930 8.466325 -6.168885
LeftUpLeg  0.317460 9.217879 7.265874
LeftLeg  30.020145 -0.000000 0.000000
LeftFoot  -8.792218 12.249061 10.646115
LeftToeBase  -21.161706 0.000000 -0.000000
RightUpLeg  -34.067340 -23.512299 17.336451
RightLeg  10.477872 -0.000000 0.000000
RightFoot  -0.380553 2.676135 -9.338034
RightToeBase  -11.530196 0.000000 -0.000000
Spine  -13.600145 -5.444293 3.266526
Spine1  15.839956 -5.201906 7.957445
Neck  7.364261 1.680219 -7.340337
Head  -11.436655 1.019385 1.319166
LeftShoulder  -3.662110 -9.943269 -31.369883
LeftArm  3.817756 42.940354 -33.266718
LeftForeArm  30.338918 -0.000000 0.000000
LeftHand  4.552608 -7.210506 -1.963246
LeftHandThumb  0.000000 -0.000000 0.000000
RightShoulder  1.658574 9.899017 22.024547
RightArm  -1.849043 -40.726423 39.403133
RightForeArm  35.372355 -0.000000 0.000000
RightHand  9.852158 13.912243 -6.709451
RightHandThumb  0.000000 -0.000000 0.000000
650
root  1.825575 35.806242 10.672859 6.939380 8.534510 -6.177138
LeftUpLeg  0.409080 8.952735 7.403332
LeftLeg  30.601434 -0.000000 0.000000
LeftFoot  -8.419200 12.335515 10.520625
LeftToeBase  -21.396571 0.000000 -0.000000
RightUpLeg  -34.244426 -23.943151 17.709903
RightLeg  11.119043 -0.000000 0.000000
RightFoot  0.470728 2.960911 -10.901895
RightToeBase  -11.656505 0.000000 -0.000000
Spine  -13.636284 -5.440945 3.359820
Spine1  15.785116 -5.223636 8.034276
Neck  7.432956 1.697677 -7.569323
Head  -11.431379 0.965855 1.336984
LeftShoulder  -3.727530 -9.902113 -31.386880
LeftArm  3.876799 42.622381 -33.262273
LeftForeArm  30.673630 -0.000000 0.000000
LeftHand  4.582980 -7.323935 -1.966462
LeftHandThumb  0.000000 -0.000000 0.000000
RightShoulder  1.620300 9.731309 21.975557
RightArm  -1.958446 -41.024150 39.536972
RightForeArm  34.884037 -0.000000 0.000000
RightHand  9.644425 14.300111 -6.665722
RightHandThumb  0.000000 -0.000000 0.000000
651
root  1.798688 35.767254 10.947019 6.870014 8.584280 -6.213266
LeftUpLeg  0.543473 8.747622 7.572280
LeftLeg  31.127518 -0.000000 0.000000
LeftFoot  -8.009389 12.438054 10.516691
LeftToeBase  -21.469282 0.000000 -0.000000
RightUpLeg  -34.430804 -24.450754 18.150230
RightLeg  11.722715 -0.000000 0.000000
RightFoot  1.389917 3.299056 -12.347376
RightToeBase  -10.612358 0.000000 -0.000000
Spine  -13.689328 -5.446689 3.467213
Spine1  15.735289 -5.259182 8.120001
Neck  7.532177 1.733619 -7.820905
Head  -11.424948 0.944483 1.382735
LeftShoulder  -3.803021 -9.918120 -31.385834
LeftArm  3.818051 42.526730 -33.297392
LeftForeArm  31.062378 -0.000000 0.000000
LeftHand  4.714452 -7.834134 -1.784507
LeftHandThumb  0.000000 -0.000000 0.000000
RightShoulder  1.592232 9.656979 21.914949
RightArm  -2.138075 -41.469155 39.745756
RightForeArm  34.358994 -0.000000 0.000000
RightHand  9.456877 14.498168 -6.729518
RightHandThumb  0.000000 -0.000000 0.000000
